<?xml version="1.0" encoding="utf-8"?>
<!-- Generator: Adobe Illustrator 16.0.0, SVG Export Plug-In . SVG Version: 6.00 Build 0)  -->
<!DOCTYPE svg PUBLIC "-//W3C//DTD SVG 1.1//EN" "http://www.w3.org/Graphics/SVG/1.1/DTD/svg11.dtd">
<svg version="1.1" id="Layer_1" xmlns="http://www.w3.org/2000/svg" xmlns:xlink="http://www.w3.org/1999/xlink" x="0px" y="0px"
	 width="746.387px" height="469px" viewBox="0 0 746.387 469" enable-background="new 0 0 746.387 469" xml:space="preserve">
<g>
	<path fill="#757575" d="M399.104,311.087l29.416,11.67c0.432,0.169,0.905,0.183,1.346,0.03l8.848-3.043l19.207,7.619
		c0.809,0.32,1.731,0.063,2.258-0.631l1.939-2.57l17.062,6.768c0.577,0.229,1.229,0.168,1.757-0.17
		c1.78-1.141,4.781-4.436,3.389-8.752c-0.176-0.551-0.592-0.992-1.127-1.206l-2.125-0.843l1.146-2.891
		c0.396-0.996-0.094-2.119-1.085-2.515l-3.045-1.207c-0.603-0.237-1.281-0.161-1.813,0.204l-5.389,3.71l-63.877-25.336
		c-0.027-0.011-0.057-0.021-0.083-0.028c-3.398-1.175-8.604-3.793-9.535-5.945c-0.167-0.391-0.123-0.621-0.044-0.813
		c0.396-0.993-0.094-2.118-1.085-2.515L364.931,270.2c-0.024-0.011-0.049-0.021-0.073-0.028c-0.233-0.082-1.477-0.475-3.026-0.141
		c-0.584,0.125-1.251,0.359-1.92,0.789c-1.313-0.293-3.104-0.407-5.119,0.232c-0.113-0.297-0.236-0.713-0.325-1.023
		c-0.49-1.67-1.313-4.465-4.359-4.995c-0.784-0.138-1.573,0.223-1.988,0.901c-0.413,0.685-0.362,1.549,0.118,2.18
		c0.536,0.699,1.437,2.406,1.197,3.365c-0.737,2.974-0.258,5.388,1.315,6.687c0.023,0.256-0.021,0.739-0.113,1.085
		c-0.007,0.025-0.015,0.055-0.021,0.079c-0.94,0.972-1.771,2.252-2.478,3.841c-0.341,0.521-1.992,2.234-3.574,3.773l-4.668-0.588
		c-1.963-1.217-3.914-1.526-4.386-1.586c-4.075-0.729-8.011-0.25-12.025,1.467c-1.101,0.473-2.208,1.039-3.329,1.705
		c-0.398,0.097-0.766,0.317-1.036,0.645c-1.944,1.256-3.937,2.813-6.011,4.696c-6.245,5.679-18.776,17.606-18.902,17.727
		c-0.468,0.443-0.683,1.089-0.574,1.722c0.023,0.155,0.068,0.308,0.132,0.446c0.188,0.438,0.531,0.794,0.974,0.994l26.666,12.171
		c0.529,0.241,1.141,0.233,1.662-0.027c0.523-0.258,0.899-0.735,1.029-1.308c1.424-6.289,4.589-17.327,9.792-20.6
		c1.373-0.862,2.306-0.774,2.505-0.744c0.306,0.121,0.508,0.106,0.844,0.06c1.085-0.16,2.584-0.726,3.918-1.854
		c0.03,0.004,0.063,0.012,0.095,0.017c0.052,0.055,0.203,0.473-0.003,1.45c-0.078,0.365,0.068,0.671-0.055,1.113
		c-0.517,1.875-0.964,4.33,0.157,6.926v0.002c1.234,2.854,4.091,5.08,9.27,6.562c4.071,1.164,7.479,0.904,10.393-0.879
		c4.702-2.888,5.782-8.524,5.829-8.767c0.003-0.019-0.025-0.019-0.023-0.032c0.022-0.142,0.21-0.763,0.523-0.976
		c0.049-0.035,0.188-0.136,0.62-0.05c0.1,0.021,0.191,0.031,0.292,0.035l14.903,2.992c0.521,0.104,1.056-0.009,1.489-0.313
		l1.699-1.188l9.329,3.702c0.613,0.244,1.313,0.156,1.849-0.232L399.104,311.087z M364.255,279.3l1.898,0.755l-1.052,2.65
		l-1.9-0.754L364.255,279.3z M382.242,293.67l-0.979,2.469l-14.966-5.938l0.979-2.471L382.242,293.67z M368.702,284.132l1.053-2.651
		l14.967,5.938l-1.052,2.649L368.702,284.132z M363.678,286.303l-0.979,2.467l-1.899-0.754l0.265-0.662l0.715-1.806L363.678,286.303
		z M361.27,292.371l-1.052,2.65l-1.9-0.754l1.052-2.65L361.27,292.371z M363.816,296.451l1.051-2.652l14.97,5.938l-1.054,2.651
		L363.816,296.451z M353.218,275.182c-0.061-0.041-0.145-0.205-0.196-0.484c0.826,0.412,1.771,0.443,2.807,0.09
		c0.452-0.153,0.884-0.246,1.288-0.293l-1.059,2.67c-0.465-0.047-0.989-0.043-1.555,0.045
		C354.332,276.453,353.957,275.715,353.218,275.182z M353.832,281.626l3.193-0.207c0.275,0.032,0.563,0.002,0.844-0.091
		c0.498-0.166,0.871-0.547,1.095-1.018c0.015-0.029,0.026-0.06,0.039-0.089c0.007-0.016,0.013-0.028,0.021-0.045l1.727-4.353
		c0.895-2.248,2.245-2.162,2.826-2l29.802,11.85c0.022,0.607,0.132,1.236,0.392,1.839c0,0,0,0,0.002,0.003
		c0.896,2.076,3.179,4,6.902,5.909c2.389,1.229,4.58,2,4.932,2.121l64.81,25.7c0.601,0.236,1.285,0.158,1.815-0.207l5.389-3.71
		l0.286,0.11l-1.146,2.892c-0.188,0.479-0.183,1.01,0.021,1.479c0.204,0.474,0.585,0.845,1.063,1.032l2.958,1.173
		c0.088,1.303-0.646,2.308-1.243,2.896l-17.377-6.895l0,0l-74.501-29.556l1.355-3.42c0.188-0.479,0.183-1.012-0.021-1.481
		c-0.204-0.472-0.586-0.845-1.063-1.03l-24.064-9.546c-0.022-0.012-0.047-0.018-0.069-0.022c-0.036-0.014-0.075-0.028-0.112-0.04
		c-0.054-0.015-0.106-0.023-0.159-0.037c-0.011-0.002-0.02-0.004-0.025-0.005c-0.06-0.01-0.118-0.021-0.179-0.024
		c-0.002,0-0.005,0-0.008,0c-0.06-0.007-0.118-0.009-0.178-0.007c-0.004,0-0.007,0-0.011,0c-0.057,0.003-0.109,0.005-0.166,0.011
		c-0.009,0.002-0.019,0.002-0.023,0.002c-0.052,0.005-0.102,0.016-0.148,0.026c-0.012,0-0.024,0.002-0.038,0.005
		c-0.048,0.008-0.093,0.021-0.14,0.036c-0.017,0.004-0.029,0.007-0.044,0.013c-0.119,0.039-0.235,0.091-0.348,0.148
		c-0.013,0.007-0.021,0.016-0.036,0.021c-0.042,0.022-0.085,0.05-0.125,0.076c-0.012,0.008-0.021,0.018-0.025,0.021
		c-0.042,0.029-0.083,0.063-0.123,0.097c-0.006,0.002-0.011,0.011-0.019,0.017c-0.041,0.037-0.084,0.076-0.12,0.112
		c-0.004,0.005-0.005,0.007-0.009,0.009c-0.041,0.043-0.081,0.088-0.119,0.135c-0.001,0.002-0.002,0.004-0.003,0.006
		c-0.035,0.048-0.07,0.098-0.104,0.148c-0.004,0.008-0.012,0.017-0.018,0.023c-0.026,0.042-0.056,0.089-0.079,0.139
		c-0.029,0.057-0.057,0.112-0.081,0.176l-2.479,6.25l0,0l-0.215,0.541l-4.67,11.771c-0.023,0.063-0.044,0.123-0.063,0.186
		c-0.014,0.045-0.021,0.09-0.029,0.135c-0.006,0.015-0.011,0.031-0.014,0.051c-0.01,0.055-0.017,0.109-0.021,0.165
		c-0.001,0.008-0.003,0.015-0.003,0.022c-0.004,0.059-0.008,0.11-0.006,0.17c0.002,0.004,0,0.013,0,0.018
		c0.002,0.055,0.006,0.109,0.012,0.161c0,0.011,0,0.021,0.001,0.028c0.006,0.051,0.016,0.099,0.022,0.146
		c0.001,0.016,0.003,0.027,0.009,0.04c0.009,0.047,0.021,0.092,0.034,0.14c0.006,0.016,0.008,0.03,0.015,0.047
		c0.021,0.06,0.041,0.117,0.065,0.176c0.024,0.061,0.055,0.115,0.083,0.171c0.01,0.015,0.018,0.026,0.023,0.041
		c0.022,0.04,0.047,0.083,0.075,0.12c0.007,0.013,0.015,0.021,0.022,0.033c0.028,0.041,0.059,0.082,0.092,0.116
		c0.006,0.011,0.013,0.017,0.02,0.021c0.035,0.042,0.073,0.081,0.11,0.118c0.005,0.004,0.011,0.008,0.014,0.014
		c0.04,0.038,0.084,0.076,0.128,0.111c0.004,0.004,0.01,0.007,0.017,0.011c0.044,0.034,0.093,0.065,0.14,0.1
		c0.012,0.009,0.023,0.017,0.04,0.023c0.04,0.022,0.081,0.052,0.125,0.071c0.058,0.029,0.112,0.058,0.175,0.08l5.499,2.184l0,0
		l12.522,4.968l-29.524-5.923c0.443-1.173,0.701-2.571,0.66-4.229c-0.031-1.23-0.256-2.384-0.661-3.431l1.408,0.181
		c0.576,0.071,1.155-0.119,1.576-0.521c2.991-2.854,4.7-4.73,5.077-5.59C352.301,283.32,353.043,282.246,353.832,281.626z
		 M298.952,311.841c0.61-0.582,1.334-1.267,2.138-2.026c0.109,0.084,0.229,0.158,0.362,0.221l10.313,4.734
		c0.973,0.446,2.122,0.021,2.567-0.951s0.02-2.119-0.951-2.564l-9.293-4.271c0.442-0.42,0.896-0.848,1.356-1.277l6.228,3.068
		c0.959,0.475,2.119,0.08,2.593-0.881c0.474-0.959,0.079-2.119-0.88-2.593l-4.926-2.431c0.889-0.834,1.771-1.658,2.631-2.459
		c0.042,0.031,0.088,0.059,0.133,0.084l3.281,1.865c0.93,0.525,2.11,0.201,2.639-0.729s0.203-2.11-0.728-2.644l-2.353-1.334
		c0.521-0.478,1.014-0.93,1.478-1.351l11.063,5.55c0.955,0.479,2.118,0.094,2.599-0.859c0.479-0.957,0.094-2.119-0.861-2.602
		l-9.585-4.807c0.713-0.551,1.415-1.059,2.107-1.52l5.063,2.322c0.971,0.446,2.121,0.021,2.565-0.949
		c0.446-0.974,0.021-2.121-0.949-2.565l-2.447-1.126c3.308-1.401,6.499-1.764,9.785-1.167c0.048,0.009,0.084,0.015,0.133,0.019
		c0.014,0.004,1.164,0.146,2.391,0.778l0.691,5.989l-5.448-2.502c-0.972-0.447-2.12-0.021-2.564,0.949
		c-0.239,0.521-0.229,1.09-0.02,1.575c0.184,0.425,0.519,0.782,0.968,0.99l6.128,2.813c0.261,0.121,0.531,0.177,0.801,0.177
		c-0.423,0.237-0.809,0.378-1.05,0.446c-0.732-0.1-2.031-0.113-3.627,0.545c-0.151-0.125-0.325-0.229-0.513-0.304
		c-0.473-0.188-1.014-0.181-1.481,0.022c-0.468,0.199-0.844,0.589-1.029,1.063c-0.155,0.387-0.177,0.814-0.066,1.217
		c-0.641,0.566-1.261,1.229-1.862,1.977l-5.861-2.702c-0.972-0.446-2.119-0.021-2.565,0.949c-0.239,0.521-0.229,1.091-0.02,1.578
		c0.184,0.424,0.516,0.784,0.968,0.991l5.297,2.439c-0.476,0.838-0.937,1.737-1.382,2.704l-4.457-2.045
		c-0.971-0.446-2.122-0.021-2.565,0.953c-0.235,0.521-0.229,1.089-0.018,1.575c0.184,0.424,0.518,0.783,0.971,0.992l4.595,2.108
		c-0.872,2.364-1.677,5.012-2.41,7.951L298.952,311.841z M345.216,302.656l0.085,0.017c-0.039,0.14-0.077,0.28-0.109,0.425
		C345.202,302.945,345.211,302.799,345.216,302.656z M344.456,310.033C344.455,310.033,344.455,310.033,344.456,310.033
		c-0.581-1.348-0.183-2.92,0.242-4.461c0.105-0.387,0.186-0.748,0.271-1.117c-0.183,1.673-0.011,3.621,0.864,5.648
		c0.384,0.889,0.938,1.776,1.615,2.686C345.876,311.973,344.892,311.043,344.456,310.033z M362.969,307.584
		c-0.045,0.214-0.963,4.311-4.142,6.244c-1.933,1.177-4.406,1.348-7.357,0.514l0.933-0.833c0.453-0.405,0.69-1.001,0.64-1.608
		c-0.053-0.604-0.388-1.15-0.901-1.477c-0.022-0.014-2.07-1.592,0.354-6.313l10.889,2.184
		C363.113,306.902,363.004,307.406,362.969,307.584z M381.477,305.98c0.074-0.111,0.141-0.234,0.192-0.367l2.208-5.565
		c0.542,0.483,1.091,1.118,1.436,1.917c0.041,0.094,0.078,0.189,0.111,0.283c0.01,0.029,0.018,0.059,0.026,0.086
		c0.023,0.072,0.047,0.146,0.066,0.22c0.009,0.028,0.016,0.056,0.021,0.083c0.024,0.101,0.048,0.197,0.065,0.297
		c0,0.013,0.002,0.021,0.005,0.033c0.017,0.09,0.026,0.18,0.038,0.271c0.004,0.029,0.006,0.061,0.01,0.092
		c0.009,0.08,0.015,0.158,0.018,0.236c0.001,0.026,0.003,0.055,0.004,0.084c0.002,0.104,0.002,0.209-0.003,0.313
		c0,0.021-0.002,0.039-0.004,0.062c-0.003,0.086-0.013,0.178-0.021,0.269c-0.002,0.032-0.008,0.065-0.012,0.103
		c-0.01,0.082-0.021,0.168-0.037,0.257c-0.004,0.021-0.006,0.038-0.009,0.062c-0.218,0.059-0.428,0.15-0.616,0.285l-1.878,1.313
		L381.477,305.98z M399.544,307.098c-0.615-0.246-1.313-0.156-1.85,0.23l-1.583,1.146l-6.784-2.691
		c0.003-0.008,0.005-0.021,0.009-0.028c0.006-0.032,0.012-0.063,0.02-0.097c0.022-0.109,0.043-0.219,0.063-0.328
		c0.008-0.045,0.016-0.092,0.021-0.135c0.016-0.104,0.029-0.207,0.045-0.313c0.004-0.037,0.009-0.075,0.012-0.11
		c0.017-0.138,0.028-0.272,0.038-0.412c0.001-0.022,0.002-0.053,0.003-0.077c0.01-0.11,0.014-0.224,0.015-0.332
		c0-0.043,0-0.086,0.001-0.129c0.001-0.103,0-0.201-0.003-0.302c0-0.037,0-0.073-0.002-0.112c-0.006-0.138-0.016-0.267-0.024-0.4
		c-0.002-0.02-0.004-0.04-0.007-0.059c-0.01-0.113-0.023-0.228-0.038-0.339c-0.006-0.045-0.013-0.081-0.018-0.125
		c-0.017-0.099-0.031-0.191-0.05-0.288c-0.008-0.037-0.015-0.076-0.021-0.113c-0.025-0.129-0.055-0.26-0.087-0.39
		c-0.003-0.012-0.006-0.021-0.008-0.032c-0.03-0.117-0.064-0.234-0.101-0.354c-0.014-0.037-0.023-0.076-0.038-0.117
		c-0.028-0.092-0.063-0.186-0.096-0.274c-0.014-0.037-0.025-0.074-0.039-0.113c-0.049-0.125-0.1-0.25-0.15-0.374
		c-0.854-1.976-2.343-3.318-3.504-4.126l0.888-2.233l72.134,28.613l-0.406,0.54l-18.502-7.338c0,0,0,0-0.002-0.001l-44.677-17.722
		c-0.994-0.396-2.119,0.092-2.513,1.084c-0.196,0.496-0.176,1.024,0.021,1.479c0.195,0.454,0.566,0.834,1.063,1.03l39.813,15.794
		l-3.898,1.34L399.544,307.098z"/>
	<path fill="#757575" d="M318.939,314.313c-0.202-0.469-0.591-0.843-1.063-1.031c-0.475-0.188-1.016-0.182-1.479,0.021
		c-0.469,0.201-0.845,0.591-1.032,1.063c-0.188,0.475-0.181,1.014,0.021,1.479c0.203,0.471,0.591,0.846,1.063,1.034
		c0.475,0.188,1.015,0.178,1.479-0.022c0.468-0.201,0.845-0.588,1.032-1.063C319.149,315.318,319.143,314.781,318.939,314.313z"/>
	<path fill="#757575" d="M366.434,340.5c0.385,0.889,1.386,1.381,2.336,1.098l5.29-1.563l0,0l4.887-1.471
		c1.097-0.327,2.413-1.154,3.44-2.15c1.495-1.448,2.086-3.021,1.667-4.432c-0.036-0.115-0.079-0.234-0.127-0.348
		c-0.547-1.268-1.87-2.121-3.819-2.469c-1.369-0.245-2.884-0.223-3.939,0.096l-4.896,1.438l0,0l-5.279,1.596
		c-0.49,0.146-0.898,0.492-1.146,0.943c-0.243,0.45-0.297,0.985-0.149,1.479l1.661,5.565
		C366.378,340.355,366.404,340.432,366.434,340.5z M380.127,333.148c-0.45,0.596-1.548,1.471-2.292,1.691l-3.036,0.904l-0.554-1.854
		l3.035-0.902C378.025,332.766,379.424,332.895,380.127,333.148z M368.959,335.468l1.574-0.472l0.555,1.855l-1.577,0.471
		L368.959,335.468z"/>
	<path fill="#757575" d="M390.22,363.326l3.688-3.527c1.35-1.288,3.229-4.805,2.181-7.232c-0.153-0.354-0.364-0.676-0.625-0.945
		c-1.017-1.063-2.675-1.323-4.674-0.744c-1.375,0.398-2.741,1.143-3.568,1.932l-3.688,3.527l-3.985,3.813
		c-0.372,0.354-0.585,0.842-0.599,1.355c-0.006,0.281,0.051,0.557,0.16,0.813c0.09,0.209,0.217,0.399,0.376,0.569l4.015,4.198
		c0.354,0.371,0.841,0.584,1.354,0.598c0.515,0.014,1.01-0.182,1.382-0.535L390.22,363.326z M392.502,354.451
		c-0.13,0.736-0.708,2.016-1.271,2.551l-2.29,2.189l-1.339-1.4l2.293-2.189C390.457,355.066,391.76,354.547,392.502,354.451z
		 M383.618,361.605l1.188-1.141l1.339,1.4l-1.188,1.139L383.618,361.605z"/>
	<path fill="#757575" d="M427.25,248.35c-0.313,1.396-0.318,2.952-0.021,4.061l1.319,4.931l1.427,5.33
		c0.023,0.09,0.056,0.183,0.093,0.269c0.163,0.381,0.446,0.697,0.812,0.907c0.442,0.259,0.975,0.326,1.469,0.194l5.609-1.502
		c1.029-0.277,1.623-1.327,1.347-2.36l-1.45-5.317l0,0l-1.3-4.94c-0.07-0.263-0.157-0.546-0.28-0.832
		c-0.915-2.118-3.384-5.206-6.132-4.468C428.724,244.992,427.7,246.318,427.25,248.35z M433.214,259.795l-0.426-1.59l0.938-0.25
		l0.937-0.25l0.427,1.59L433.214,259.795z M432.729,250.611c0.063,0.146,0.093,0.248,0.106,0.293l0.817,3.059l-0.713,0.191
		l-1.156,0.311l-0.82-3.061c-0.201-0.75-0.032-2.139,0.238-2.836C431.683,248.947,432.366,249.773,432.729,250.611z"/>
	<path fill="#757575" d="M357.282,356.781c0.034-0.512-0.058-1.024-0.271-1.522c-0.563-1.297-1.851-2.188-2.829-2.711
		c-1.114-0.591-2.363-0.983-3.338-1.05l-5.091-0.34h-0.002l-5.503-0.369c-1.064-0.071-1.989,0.734-2.063,1.802l-0.388,5.793
		c-0.021,0.317,0.034,0.622,0.152,0.896c0.276,0.645,0.896,1.114,1.646,1.163l5.504,0.371l0.003-0.002l5.092,0.347
		c1.143,0.075,2.666-0.231,3.978-0.808C356.081,359.514,357.186,358.246,357.282,356.781z M350.588,355.363
		c0.775,0.051,2.044,0.664,2.609,1.143c-0.629,0.402-1.964,0.84-2.74,0.788l-3.16-0.212l0.13-1.93L350.588,355.363z
		 M341.921,354.781l1.642,0.109l-0.13,1.932l-1.642-0.11L341.921,354.781z"/>
	<path fill="#757575" d="M373.671,393.877l1.441-2.83c0.441-0.865,0.474-1.873,0.087-2.766c-0.3-0.693-0.835-1.264-1.51-1.606
		l-2.569-1.312c-0.409-0.209-0.854-0.324-1.3-0.35c-0.284-0.352-0.64-0.641-1.044-0.847l-3.375-1.722
		c-1.673-0.854-5.644-1.46-7.58,0.354c-0.509,0.477-1.597,1.825-0.646,4.023c0,0,0,0,0.001,0.002
		c0.233,0.543,0.587,1.097,1.053,1.695c0.974,1.252,2.283,2.297,3.88,3.109l2.271,1.152c0.417,0.214,0.859,0.324,1.301,0.348
		c0.284,0.354,0.64,0.645,1.045,0.85l2.571,1.313C370.893,396.109,372.855,395.473,373.671,393.877z M361.297,386.143
		c-0.195-0.252-0.33-0.453-0.418-0.609c0.751-0.105,2.094,0.021,2.768,0.359l2.823,1.439l-0.438,0.863l-0.438,0.861l-1.714-0.875
		C362.786,387.631,361.92,386.943,361.297,386.143z M369.035,390.818l0.879-1.727l1.467,0.747l-0.879,1.728L369.035,390.818z"/>
</g>
<g>
	<g>
		<g>
			<g>
				<path fill="#757575" d="M111.805,216.905c-5.042,2.699-7.569,5.178-7.595,7.292c-0.091,7.404-0.182,14.808-0.271,22.211
					c-0.179,14.716-10.261,24.527-30.071,30.307c-19.794,5.859-29.592,0.484-29.583-16.998c0.014-8.646,0.025-17.292,0.04-25.938
					c0.005-2.469-2.479-4.504-7.456-6.228c4.977-3.316,7.476-6.123,7.479-8.595c0.013-8.646,0.026-17.292,0.04-25.939
					c0.015-17.447,10.107-26.089,30.276-25.938c20.163,0.131,30.15,7.531,29.967,22.212c-0.09,7.404-0.18,14.808-0.271,22.212
					C104.34,213.622,106.819,215.452,111.805,216.905z M89.332,213.228c0.03-3.296,0.063-6.593,0.097-9.889
					c0.088-8.75-4.895-12.857-14.938-12.277c-10.045,0.582-15.08,5.666-15.121,15.205c-0.017,3.563-0.031,7.125-0.049,10.688
					c-0.01,2.377,2.477,4.421,7.453,6.021c-5.006,3.058-7.507,5.855-7.518,8.229c-0.017,3.563-0.032,7.125-0.048,10.688
					c-0.039,9.549,4.894,13.106,14.833,10.84c9.94-2.25,14.975-7.67,15.062-16.43c0.032-3.296,0.064-6.593,0.098-9.889
					c0.021-2.196-2.458-4.019-7.438-5.568C86.783,217.915,89.31,215.428,89.332,213.228z"/>
			</g>
			<g>
				<path fill="#757575" d="M194.417,249.359c-3.813,0.643-7.621,1.307-11.429,1.988c-2.471,0.408-4.946,0.006-7.433-1.253
					c-2.552,2.168-7.631,3.981-15.22,5.511c-7.54,1.521-12.517,1.678-14.94,0.313c-2.591,2.443-5.139,3.973-7.643,4.532
					c-3.732,0.832-7.461,1.685-11.188,2.556c0.081-6.988,0.162-13.979,0.242-20.972c1.278-0.232,2.555-0.464,3.833-0.693
					c5.011-0.907,7.553-3.28,7.616-7.165c0.08-4.882,0.16-9.763,0.24-14.645c-0.021-1.898-2.525-3.491-7.518-4.857
					c5.054-2.596,7.624-4.802,7.706-6.754c0.08-4.862,0.159-9.725,0.239-14.587c0.014-3.878-2.497-5.703-7.528-5.458
					c-1.258,0.063-2.516,0.126-3.771,0.19c0.131-6.997,0.262-13.993,0.393-20.988c3.779,0,7.561,0,11.338,0
					c2.47,0,4.947,0.973,7.437,2.866c2.65-1.928,5.214-2.866,7.684-2.866c3.78,0,7.562,0,11.339,0
					c-0.119,6.403-0.236,12.806-0.355,19.209c-1.26,0.036-2.52,0.072-3.777,0.109c-5.037,0.25-7.588,2.264-7.655,6.025
					c-0.083,4.693-0.167,9.387-0.25,14.08c-0.032,1.879,2.448,3.521,7.447,4.861c-5.065,2.313-7.613,4.489-7.646,6.403
					c-0.075,2.818-0.15,5.638-0.227,8.458c-0.133,7.528,2.313,10.867,7.341,10.061c3.798-0.598,7.599-1.178,11.398-1.742
					c4.985-0.746,7.54-2.869,7.659-6.411c0.035-1.77,0.067-3.539,0.103-5.309c5.04-0.605,10.082-1.188,15.127-1.747
					C194.791,230.503,194.603,239.932,194.417,249.359z"/>
			</g>
			<g>
				<path fill="#757575" d="M294.112,202.143c-5.034,1.656-7.563,3.252-7.587,4.724c-0.078,5.158-0.154,10.315-0.23,15.473
					c-0.147,10.307-10.416,16.169-30.737,18.453c-1.271,0.143-2.539,0.285-3.808,0.432c-7.615,0.883-12.673,0.756-15.178-0.514
					c-2.564,1.9-5.114,3.04-7.647,3.387c-3.8,0.52-7.6,1.055-11.396,1.613c0.114-5.732,0.229-11.467,0.343-17.201
					c1.265-0.146,2.527-0.289,3.794-0.431c5.058-0.571,7.62-2.438,7.683-5.644c0.079-4.012,0.157-8.022,0.235-12.034
					c-0.021-1.6-2.518-3.013-7.484-4.282c5.083-1.988,7.643-3.74,7.673-5.345c0.078-4.011,0.157-8.022,0.235-12.034
					c0.063-3.206-1.167-4.773-3.69-4.699c-2.521,0.078-5.044,0.157-7.566,0.239c0.113-5.734,0.229-11.467,0.343-17.201
					c3.779,0,7.559,0,11.339,0c2.52,0,5.021,0.802,7.514,2.375c2.551-1.595,7.605-2.377,15.164-2.375c1.261,0,2.521,0,3.779,0
					c20.151,0.047,30.153,5.199,30.004,15.473c-0.078,5.158-0.155,10.315-0.231,15.473
					C286.635,199.5,289.118,200.877,294.112,202.143z M271.477,198.631c0.038-2.253,0.075-4.507,0.113-6.761
					c0.1-5.994-4.9-8.912-14.995-8.712c-1.262,0.046-2.524,0.093-3.787,0.141c-5.048,0.12-7.629,3.316-7.747,9.579
					c-0.068,2.346-0.139,4.693-0.208,7.04c-0.028,1.565,2.467,2.988,7.498,4.239c-5.037,1.836-7.568,3.576-7.599,5.138
					c-0.044,2.345-0.089,4.69-0.133,7.036c-0.117,6.265,2.354,9.142,7.426,8.675c1.267-0.114,2.533-0.227,3.802-0.338
					c10.142-0.896,15.27-4.259,15.367-10.261c0.038-2.254,0.074-4.507,0.112-6.761c-0.025-1.499-2.532-2.865-7.518-4.122
					C268.896,201.741,271.452,200.135,271.477,198.631z"/>
			</g>
			<g>
				<path fill="#757575" d="M374.39,201.57c-2.54,5.229-5.087,10.468-7.642,15.718c-0.309,0.337-0.459,0.646-0.46,0.924
					c-0.003,0.782,1.422,1.158,4.271,1.142c-0.007,4.879-0.014,9.758-0.021,14.637c-3.802,0.026-7.604,0.071-11.403,0.138
					c-2.604,0.018-5.176-0.628-7.718-1.94c-2.56,1.46-5.112,2.233-7.662,2.313c-3.826,0.119-7.651,0.259-11.478,0.417
					c0.041-4.946,0.082-9.893,0.123-14.84c2.85-0.093,4.275-0.527,4.28-1.317c0.001-0.282-0.147-0.587-0.45-0.917
					c-5.004-10.43-9.979-20.925-14.927-31.534c0.024-0.015,0.05-0.029,0.076-0.044c-2.551-2.782-5.062-4.17-7.535-4.138
					c-1.288,0.017-2.575,0.034-3.864,0.052c0.063-5.033,0.12-10.067,0.18-15.101c3.779,0,7.561,0,11.341,0
					c2.519,0,5.057,0.712,7.613,2.125c2.481-1.42,4.981-2.125,7.503-2.125c2.495,0,4.988,0,7.482,0
					c-0.005,4.917-0.011,9.833-0.017,14.749c-5.659,0.039-8.495,0.855-8.509,2.436c-0.004,0.536,0.32,1.154,0.974,1.852
					c-0.024,0-0.052,0-0.076,0c4.972,11.227,9.973,22.366,15.005,33.471c5.144-11.298,10.256-22.507,15.336-33.679
					c0.025-0.014,0.051-0.028,0.076-0.042c0.306-0.656,0.607-1.313,0.914-1.968c-0.25-1.449-3.104-2.17-8.563-2.15
					c0.019-4.889,0.035-9.778,0.054-14.667c2.521,0,5.04,0,7.56,0c2.519,0,5.063,0.697,7.633,2.09c2.47-1.393,4.965-2.09,7.484-2.09
					c2.495,0,4.989,0,7.481,0c0.036,4.881,0.071,9.763,0.106,14.644c-5.356-0.012-8.187,0.686-8.488,2.078
					c0.328,0.697,0.657,1.395,0.986,2.091c-0.024,0-0.05,0-0.076,0c5.065,11.154,10.162,22.326,15.291,33.57
					c5.049-11.106,10.065-22.229,15.052-33.421c0.024-0.014,0.053-0.028,0.075-0.042c0.604-0.668,0.901-1.271,0.898-1.805
					c-0.013-1.574-2.871-2.384-8.58-2.414c-0.023-4.901-0.048-9.801-0.072-14.702c2.521,0,5.04,0,7.56,0
					c2.521,0,5.069,0.702,7.651,2.115c2.457-1.407,4.946-2.115,7.467-2.115c3.778,0,7.561,0,11.338,0
					c0.056,5,0.106,10.001,0.161,15.002c-1.235-0.015-2.476-0.03-3.714-0.044c-2.576-0.029-5.088,1.368-7.54,4.169
					c-0.024,0-0.051-0.001-0.076-0.001c-4.962,10.561-9.951,21.024-14.972,31.44c-0.304,0.33-0.453,0.636-0.451,0.917
					c0.004,0.786,1.432,1.211,4.279,1.289c0.034,4.925,0.067,9.851,0.104,14.776c-3.799-0.133-7.601-0.244-11.398-0.336
					c-2.604-0.092-5.185-0.844-7.736-2.256c-2.547,1.354-5.096,2.016-7.646,1.99c-3.827-0.041-7.654-0.061-11.48-0.061
					c0-4.877,0-9.754,0-14.631c2.851,0,4.274-0.383,4.273-1.164c0-0.279-0.153-0.586-0.458-0.921
					C379.463,212.015,376.923,206.792,374.39,201.57z"/>
			</g>
			<g>
				<path fill="#757575" d="M531.341,244.632c-3.823-0.534-7.649-1.052-11.479-1.545c-2.484-0.353-5.013-1.444-7.576-3.247
					c-2.509,1.205-7.594,1.322-15.265,0.488c-7.621-0.824-12.694-2.039-15.209-3.732c-2.567,1.258-5.125,1.768-7.668,1.543
					c-3.791-0.33-7.582-0.641-11.375-0.932c-0.098-5.116-0.194-10.23-0.293-15.345c1.295,0.078,2.591,0.157,3.886,0.239
					c5.079,0.324,7.596-0.976,7.549-3.942c-0.058-3.716-0.113-7.432-0.172-11.148c-0.072-1.452-2.652-3.033-7.737-4.676
					c5.042-1.291,7.573-2.683,7.604-4.163c-0.058-3.701-0.114-7.402-0.172-11.104c-0.097-2.965-2.67-4.496-7.72-4.583
					c-1.265-0.022-2.524-0.044-3.788-0.065c-0.046-5.113-0.093-10.226-0.142-15.339c3.778,0,7.561,0,11.338,0
					c2.471,0,4.977,0.741,7.521,2.242c2.597-1.485,7.646-2.24,15.157-2.242c7.56-0.002,12.61,0.771,15.162,2.345
					c2.489-1.553,4.995-2.345,7.515-2.345c3.78,0,7.56,0,11.34,0c0.175,8.886,0.352,17.772,0.524,26.659
					c-5.048-0.244-10.1-0.476-15.147-0.695c-0.057-1.575-0.109-3.149-0.166-4.724c-0.061-3.15-2.588-4.812-7.585-4.968
					c-3.785-0.099-7.571-0.193-11.355-0.283c-5.1-0.082-7.598,2.899-7.493,8.932c0.063,2.267,0.128,4.533,0.189,6.8
					c3.794,0.169,7.587,0.346,11.38,0.533c-0.014-0.768-0.026-1.536-0.041-2.304c2.503,0.114,5.005,0.231,7.507,0.353
					c0.04,0.778,0.08,1.557,0.118,2.335c0.028,1.556,2.586,3.236,7.673,5.128c-5.027,1.224-7.527,2.612-7.499,4.197
					c-0.013,0.775-0.021,1.551-0.033,2.326c-2.505-0.177-5.011-0.349-7.519-0.516c-0.014-0.768-0.025-1.536-0.042-2.304
					c-3.796-0.24-7.593-0.468-11.392-0.685c0.015,2.264,0.027,4.528,0.041,6.792c0.104,6.036,2.689,9.25,7.763,9.686
					c3.829,0.324,7.655,0.664,11.481,1.021c5.018,0.472,7.52-0.844,7.511-3.993c-0.03-1.574-0.061-3.147-0.091-4.721
					c5.062,0.419,10.12,0.861,15.177,1.326C530.99,226.859,531.166,235.744,531.341,244.632z"/>
			</g>
			<g>
				<path fill="#757575" d="M590.648,167.079c5.896-0.001,10.945,0.55,15.148,1.705c-0.012-0.568-0.021-1.136-0.03-1.705
					c5.04,0,10.079,0,15.118,0c0.188,11.777,0.376,23.554,0.563,35.331c-5.025-0.426-10.058-0.838-15.089-1.237
					c-0.017-0.947-0.032-1.894-0.05-2.841c-0.132-7.604-5.229-11.633-15.306-12.04c-2.521-0.108-5.037-0.215-7.558-0.32
					c-10.077-0.392-15.05,2.904-14.913,9.844c0.085,4.312,4.421,7.15,13.002,8.646c2.003-0.408,3.984-1.966,5.945-4.724
					c2.584,3.812,5.138,5.875,7.654,6.095c0,0.037,0.001,0.074,0.002,0.111c17.633,2.292,26.527,10.09,26.731,22.964
					c0.063,3.926,0.125,7.852,0.188,11.777c0.211,13.885-9.67,18.338-29.78,14.224c-2.515-0.496-5.028-0.984-7.547-1.464
					c-5.89-1.122-10.94-2.568-15.146-4.336c0.011,0.521,0.021,1.046,0.03,1.565c-5.044-0.887-10.093-1.739-15.146-2.557
					c-0.202-10.129-0.403-20.259-0.605-30.391c5.049,0.511,10.094,1.043,15.136,1.598c0.018,0.871,0.033,1.741,0.052,2.612
					c0.136,6.948,5.25,11.096,15.322,12.613c2.519,0.374,5.034,0.757,7.551,1.146c10.062,1.588,15.015-1.34,14.883-8.953
					c-0.083-4.707-4.4-8.022-12.973-9.786c-2.002,0.362-3.983,1.895-5.941,4.554c-2.586-3.933-5.139-5.987-7.656-6.251
					c0-0.036-0.001-0.072-0.003-0.107c-17.649-2.683-26.607-9.253-26.825-20.216c-0.065-3.376-0.136-6.753-0.201-10.13
					c-0.233-11.738,9.727-17.642,29.884-17.728C585.61,167.079,588.131,167.079,590.648,167.079z"/>
			</g>
			<g>
				<path fill="#757575" d="M701.055,282.203c-3.676-1.123-7.354-2.229-11.04-3.313c-2.521-0.789-5.028-2.679-7.521-5.604
					c-2.462,1.598-4.931,2.016-7.408,1.323c-3.695-1.03-7.396-2.043-11.1-3.034c-0.104-7.627-0.208-15.252-0.313-22.875
					c1.247,0.26,2.491,0.521,3.736,0.784c4.935,1.056,7.399-0.639,7.413-5.118c-0.048-5.623-0.098-11.247-0.146-16.87
					c-0.021-2.194-2.534-4.783-7.561-7.612c4.933-1.572,7.413-3.526,7.444-5.762c-0.049-5.601-0.097-11.201-0.145-16.802
					c-0.089-4.493-2.618-6.886-7.593-7.169c-5.023-0.286-7.515,1.73-7.466,6.031c0.049,2.158,0.1,4.316,0.146,6.475
					c-5.042-0.454-10.086-0.896-15.133-1.325c-0.15-11.418-0.303-22.837-0.451-34.255c10.104,0,20.208,0,30.313,0
					c2.521,0,5.048,1.121,7.584,3.427c2.553-2.261,5.063-3.427,7.534-3.427c10.054,0,20.106,0,30.16,0c0,13.858,0,27.716,0,41.575
					c-4.996-0.549-9.994-1.085-14.996-1.61c-0.008-2.422-0.015-4.844-0.021-7.266c-0.017-4.854-2.506-7.444-7.474-7.756
					c-5.067-0.308-7.575,4.191-7.52,13.486c0.021,3.494,0.042,6.987,0.063,10.48c0.063,2.337,2.604,4.983,7.604,8.103
					c-4.979,1.584-7.484,3.505-7.521,5.872c0.035,5.822,0.069,11.646,0.104,17.467c0.026,4.648,2.524,7.54,7.483,8.713
					c1.239,0.29,2.479,0.584,3.721,0.879C700.99,265.414,701.023,273.809,701.055,282.203z"/>
			</g>
		</g>
		<g>
			<path fill="#757575" d="M295.837,109.562c-0.128-0.277-0.269-0.493-0.414-0.649c-0.147-0.156-0.354-0.321-0.623-0.496
				l-8.521-5.799c-0.444-0.316-0.763-0.618-0.951-0.904s-0.368-0.614-0.54-0.982l-3.896-8.395c-0.457-0.983-0.512-1.827-0.165-2.53
				c0.347-0.702,1.011-1.282,1.996-1.739l3.09-1.434c0.984-0.457,1.856-0.59,2.617-0.401c0.76,0.189,1.369,0.776,1.826,1.76
				l3.746,8.072l-3.646,1.691l-3.531-7.611l-2.074,0.963l3.53,7.61c0.129,0.277,0.277,0.498,0.447,0.662
				c0.169,0.165,0.366,0.326,0.589,0.483l8.031,5.467c0.313,0.191,0.565,0.374,0.757,0.545c0.191,0.173,0.368,0.353,0.529,0.539
				c0.161,0.187,0.313,0.415,0.458,0.685s0.31,0.605,0.494,1.004l3.639,7.841c0.457,0.984,0.513,1.828,0.165,2.53
				c-0.347,0.702-1.012,1.282-1.996,1.739l-3.09,1.434c-0.984,0.457-1.854,0.591-2.617,0.401c-0.76-0.188-1.369-0.775-1.825-1.759
				l-3.745-8.072l3.645-1.691l3.532,7.61l2.075-0.963L295.837,109.562z"/>
			<path fill="#757575" d="M310.013,76.205l8.552,32.583l4.193-1.701l1.355,3.345l-8.527,3.459l-8.553-32.583l-4.287,1.739
				l-1.356-3.345L310.013,76.205z"/>
			<path fill="#757575" d="M328.252,69.85l4.804,15.918l0.779-0.235l-2.518-16.609l3.797-1.146l2.233,16.907
				c0.506-0.082,0.918-0.064,1.237,0.052c0.316,0.116,0.571,0.288,0.766,0.512c0.192,0.226,0.341,0.482,0.444,0.769
				c0.104,0.287,0.194,0.561,0.272,0.82l5.009,16.6l-3.846,1.161l-4.83-16.016l-2.288,0.69l4.833,16.016l-3.847,1.16L324.404,71.01
				L328.252,69.85z"/>
			<path fill="#757575" d="M366.282,95.836c0.16,1.074-0.024,1.958-0.558,2.653c-0.53,0.696-1.315,1.121-2.354,1.275l-3.369,0.5
				c-1.04,0.154-1.915-0.024-2.625-0.535c-0.711-0.512-1.146-1.303-1.306-2.377l-4.425-29.775c-0.147-1.006,0.039-1.874,0.564-2.603
				c0.523-0.729,1.309-1.171,2.348-1.326l3.37-0.5c1.039-0.154,1.917,0.042,2.632,0.586c0.716,0.545,1.146,1.32,1.297,2.326
				L366.282,95.836z M362.338,96.268l-4.379-29.474l-2.314,0.344l4.38,29.475L362.338,96.268z"/>
			<path fill="#757575" d="M378.493,98.636l1.06-37.003l4.016,0.115l-0.955,33.395l4.168,0.119l-0.104,3.608L378.493,98.636z"/>
			<path fill="#757575" d="M397.722,100.166l6.848-36.379l8.295,1.561l-0.668,3.548l-4.348-0.818l-2.407,12.792l3.647,0.687
				l-0.679,3.598l-3.646-0.688l-2.426,12.893l4.348,0.818l-0.668,3.548L397.722,100.166z"/>
			<path fill="#757575" d="M431.883,70.487l-2.211,18.857l5.787-17.688l3.77,1.233l-11.511,35.183l-3.383-1.107l2.367-19.341
				l-5.944,18.171l-3.771-1.233L428.5,69.38L431.883,70.487z"/>
			<path fill="#757575" d="M453.814,78.538l3.754,1.567l-14.264,34.16l-3.754-1.567L453.814,78.538z"/>
			<path fill="#757575" d="M469.463,88.968c0.387-0.83,1.009-1.399,1.863-1.71c0.854-0.311,1.699-0.273,2.527,0.114l3.455,1.614
				c0.83,0.387,1.399,1.009,1.711,1.865c0.313,0.856,0.273,1.699-0.113,2.528l-14.265,30.547l-3.64-1.7l7.076-15.158l-2.165-1.011
				l-7.077,15.159l-3.642-1.7L469.463,88.968z M475.139,91.955l-2.166-1.011l-5.507,11.795l2.166,1.011L475.139,91.955z"/>
		</g>
		<g>
			<path fill="#757575" d="M206.021,339.609c0.271-0.037,0.489-0.101,0.661-0.185c0.171-0.085,0.366-0.218,0.585-0.397l7.168-5.733
				c0.386-0.298,0.726-0.487,1.021-0.573c0.292-0.086,0.617-0.152,0.978-0.203l8.166-1.114c0.957-0.132,1.689,0.043,2.196,0.521
				c0.507,0.479,0.827,1.197,0.958,2.154l0.411,3.006c0.131,0.957,0.016,1.734-0.346,2.332c-0.358,0.598-1.019,0.962-1.976,1.093
				l-7.854,1.074l-0.482-3.544l7.403-1.012l-0.276-2.021l-7.402,1.014c-0.27,0.037-0.496,0.104-0.68,0.207
				c-0.185,0.102-0.374,0.227-0.566,0.375l-6.756,5.401c-0.245,0.217-0.466,0.386-0.663,0.502c-0.195,0.119-0.396,0.222-0.597,0.312
				c-0.202,0.088-0.436,0.158-0.703,0.211c-0.267,0.051-0.596,0.104-0.982,0.156l-7.629,1.043c-0.957,0.131-1.688-0.043-2.195-0.521
				s-0.826-1.197-0.957-2.154l-0.411-3.006c-0.131-0.958-0.016-1.734,0.344-2.332s1.021-0.962,1.978-1.094l7.851-1.073l0.485,3.544
				l-7.403,1.012l0.276,2.021L206.021,339.609z"/>
			<path fill="#757575" d="M233.435,353.641l-2.977,1.217l-0.993-2.433l-27.542,11.25l-1.455-3.563l27.542-11.247l-0.993-2.434
				l2.978-1.216L233.435,353.641z"/>
			<path fill="#757575" d="M239.921,364.09c0.462,0.671,0.62,1.406,0.473,2.204c-0.147,0.797-0.544,1.419-1.189,1.864l-9.024,6.215
				c-0.199,0.139-0.425,0.273-0.678,0.412c-0.255,0.138-0.524,0.224-0.813,0.258c-0.289,0.033-0.584-0.012-0.888-0.133
				c-0.303-0.119-0.608-0.352-0.915-0.688c0.406,0.854,0.46,1.506,0.161,1.949c-0.299,0.442-0.647,0.805-1.045,1.077l-11.563,7.961
				l-2.027-2.944l12.27-8.449l-1.207-1.754l-12.27,8.45l-2.029-2.946l27.15-18.696L239.921,364.09z M227.366,371.966l9.548-6.575
				l-1.207-1.752l-9.548,6.574L227.366,371.966z"/>
			<path fill="#757575" d="M251.468,377.316l-24.015,17.978l2.81,2.89l-2.305,2.241l-5.714-5.877l24.015-17.978l-2.873-2.955
				l2.305-2.24L251.468,377.316z"/>
			<path fill="#757575" d="M236.254,407.816l20.497-25.818l5.887,4.674l-1.999,2.52l-3.085-2.447l-7.208,9.077l2.589,2.057
				l-2.026,2.556l-2.59-2.059l-7.264,9.148l3.085,2.449l-1.999,2.521L236.254,407.816z"/>
			<path fill="#757575" d="M251.111,418.768l17.568-27.895l3.027,1.906l-15.855,25.174l3.143,1.979l-1.714,2.723L251.111,418.768z"
				/>
			<path fill="#757575" d="M284.149,399.813l-4.328,16.347l7.333-14.861l3.167,1.563l-14.585,29.563l-2.843-1.401l4.528-16.751
				l-7.533,15.271l-3.167-1.563l14.585-29.563L284.149,399.813z"/>
			<path fill="#757575" d="M298.145,406.148l3.373,1.318l-12.012,30.698l-3.374-1.319L298.145,406.148z"/>
			<path fill="#757575" d="M308.198,443.58c-0.679,0.36-1.479,0.396-2.401,0.116l-2.9-0.893c-0.925-0.281-1.564-0.764-1.927-1.44
				c-0.36-0.68-0.398-1.479-0.116-2.403l7.857-25.63c0.266-0.865,0.74-1.492,1.43-1.883c0.688-0.389,1.493-0.441,2.417-0.158
				l2.898,0.891c0.925,0.282,1.563,0.777,1.913,1.484c0.352,0.707,0.396,1.494,0.13,2.359l-2.229,7.271l-3.42-1.048l2.189-7.146
				l-1.947-0.599l-7.777,25.37l1.947,0.597l2.188-7.144l3.42,1.049l-2.229,7.272C309.357,442.578,308.877,443.22,308.198,443.58z"/>
			<path fill="#757575" d="M334.57,416.964l-0.696,3.138l-2.563-0.566l-6.453,29.042l-3.758-0.837l6.454-29.041l-2.563-0.569
				l0.696-3.141L334.57,416.964z"/>
			<path fill="#757575" d="M351.14,419.621l-3.938,29.487l2.021,0.271l3.938-29.488l3.546,0.476l-3.957,29.622
				c-0.128,0.957-0.496,1.67-1.107,2.138c-0.609,0.467-1.396,0.635-2.353,0.508l-2.559-0.342c-0.33-0.045-0.646-0.17-0.955-0.379
				s-0.517-0.475-0.625-0.791c-0.188,0.278-0.46,0.479-0.812,0.6c-0.354,0.121-0.692,0.158-1.021,0.115l-2.56-0.342
				c-0.958-0.13-1.669-0.498-2.136-1.109c-0.468-0.607-0.638-1.394-0.51-2.353l3.957-29.622l3.547,0.474l-3.938,29.489l2.021,0.27
				l3.938-29.487L351.14,419.621z"/>
			<path fill="#757575" d="M364.89,423.937c0.039-0.813,0.357-1.491,0.959-2.036c0.601-0.548,1.309-0.802,2.122-0.763l3.393,0.163
				c0.813,0.039,1.494,0.359,2.04,0.96c0.545,0.603,0.798,1.31,0.759,2.121l-1.44,29.987l-3.572-0.173l0.716-14.878l-2.126-0.104
				l-0.715,14.88l-3.573-0.172L364.89,423.937z M370.574,424.482l-2.125-0.104l-0.558,11.577l2.126,0.104L370.574,424.482z"/>
			<path fill="#757575" d="M412.767,440.103c-0.061-0.265-0.14-0.479-0.237-0.643c-0.099-0.164-0.249-0.347-0.448-0.55l-6.33-6.646
				c-0.329-0.356-0.549-0.681-0.659-0.965c-0.111-0.284-0.206-0.604-0.286-0.957l-1.816-8.039c-0.213-0.938-0.104-1.687,0.331-2.231
				c0.436-0.546,1.121-0.927,2.063-1.142l2.959-0.669c0.94-0.213,1.728-0.165,2.354,0.145c0.626,0.308,1.046,0.933,1.259,1.872
				l1.747,7.729l-3.487,0.789l-1.646-7.288l-1.987,0.449l1.647,7.287c0.06,0.266,0.146,0.483,0.265,0.66
				c0.118,0.176,0.258,0.353,0.422,0.528l5.968,6.269c0.234,0.225,0.422,0.431,0.558,0.617c0.135,0.186,0.255,0.375,0.36,0.565
				c0.104,0.192,0.193,0.42,0.271,0.685c0.073,0.262,0.155,0.584,0.241,0.967l1.697,7.507c0.213,0.942,0.104,1.688-0.331,2.233
				c-0.435,0.547-1.122,0.927-2.063,1.14l-2.959,0.67c-0.94,0.213-1.728,0.166-2.354-0.142c-0.626-0.309-1.046-0.934-1.259-1.875
				l-1.747-7.729l3.487-0.79l1.646,7.288l1.987-0.449L412.767,440.103z"/>
			<path fill="#757575" d="M428.135,431.222l5.021,14.026l-3.367,1.205l-11.114-31.035l5.926-2.122
				c0.769-0.274,1.525-0.241,2.271,0.101c0.748,0.343,1.26,0.896,1.533,1.664l4.168,11.639c0.267,0.737,0.229,1.448-0.104,2.129
				c-0.333,0.683-0.884,1.158-1.65,1.435L428.135,431.222z M429.039,427.435l-3.908-10.913l-2.004,0.721l3.907,10.912
				L429.039,427.435z"/>
			<path fill="#757575" d="M455.9,432.154c0.42,0.871,0.496,1.672,0.229,2.4c-0.27,0.732-0.823,1.305-1.665,1.708l-2.733,1.317
				c-0.843,0.406-1.634,0.486-2.372,0.238c-0.74-0.246-1.316-0.808-1.738-1.678l-11.64-24.146c-0.394-0.813-0.464-1.604-0.209-2.361
				c0.254-0.758,0.803-1.342,1.646-1.747l2.731-1.315c0.843-0.406,1.642-0.473,2.396-0.199c0.752,0.275,1.323,0.82,1.718,1.636
				L455.9,432.154z M452.658,433.566l-11.521-23.904l-1.876,0.904l11.521,23.901L452.658,433.566z"/>
			<path fill="#757575" d="M455.629,398.035c0.697-0.418,1.44-0.528,2.229-0.332c0.786,0.199,1.382,0.634,1.784,1.309l5.631,9.4
				c0.123,0.207,0.246,0.441,0.367,0.703c0.122,0.262,0.189,0.537,0.205,0.826c0.016,0.291-0.047,0.582-0.188,0.879
				c-0.141,0.295-0.389,0.584-0.747,0.867c0.882-0.353,1.532-0.363,1.957-0.035c0.426,0.324,0.763,0.695,1.011,1.108l7.211,12.043
				l-3.068,1.838l-7.653-12.778l-1.825,1.092l7.653,12.783l-3.067,1.836l-16.937-28.281L455.629,398.035z M462.691,411.066
				l-5.956-9.945l-1.826,1.094l5.955,9.945L462.691,411.066z"/>
			<path fill="#757575" d="M472.115,387.003l1.854,2.626l-2.146,1.516l17.16,24.305l-3.145,2.221l-17.16-24.303l-2.146,1.515
				l-1.854-2.626L472.115,387.003z"/>
			<path fill="#757575" d="M504.271,399.734c0.607,0.752,0.865,1.514,0.773,2.285c-0.094,0.773-0.502,1.457-1.229,2.047
				l-2.355,1.908c-0.729,0.59-1.479,0.85-2.257,0.776c-0.774-0.069-1.468-0.479-2.074-1.229l-16.875-20.83
				c-0.57-0.703-0.819-1.453-0.746-2.25c0.071-0.799,0.474-1.49,1.199-2.08l2.356-1.91c0.728-0.588,1.487-0.836,2.282-0.741
				s1.479,0.491,2.048,1.196L504.271,399.734z M501.441,401.854l-16.704-20.619l-1.619,1.313l16.704,20.617L501.441,401.854z"/>
			<path fill="#757575" d="M498.628,364.712l20.347,21.704l1.486-1.395l-20.349-21.705l2.609-2.445l20.438,21.803
				c0.661,0.705,0.979,1.441,0.954,2.209c-0.023,0.771-0.391,1.482-1.095,2.146l-1.883,1.766c-0.242,0.229-0.542,0.396-0.896,0.5
				s-0.69,0.103-1.008-0.019c0.097,0.324,0.08,0.66-0.05,1.01c-0.129,0.349-0.313,0.636-0.556,0.859l-1.885,1.768
				c-0.704,0.662-1.439,0.979-2.209,0.955c-0.769-0.025-1.48-0.393-2.144-1.098l-20.439-21.803l2.609-2.447l20.348,21.705
				l1.486-1.395l-20.348-21.704L498.628,364.712z"/>
			<path fill="#757575" d="M532.773,377.23l-24.063-22.533l5.138-5.486l2.348,2.197l-2.691,2.875l8.461,7.924l2.261-2.413
				l2.379,2.229l-2.26,2.412l8.528,7.984l2.69-2.876l2.348,2.196L532.773,377.23z"/>
			<path fill="#757575" d="M548.16,355.087c0.744,0.618,1.15,1.31,1.223,2.073c0.069,0.766-0.202,1.521-0.818,2.263l-2.024,2.438
				c-0.599,0.721-1.288,1.127-2.072,1.221c-0.784,0.095-1.548-0.166-2.292-0.784l-20.624-17.125
				c-0.696-0.579-1.083-1.271-1.157-2.08c-0.074-0.808,0.188-1.571,0.785-2.292l2.023-2.438c0.617-0.744,1.32-1.144,2.107-1.192
				c0.789-0.052,1.531,0.212,2.229,0.791l5.854,4.86l-2.285,2.752l-5.748-4.773l-1.417,1.707l20.415,16.952l1.417-1.707
				l-8.988-7.464l-0.549,0.662l-2.509-2.082l2.836-3.414L548.16,355.087z"/>
			<path fill="#757575" d="M559.991,338.984c0.793,0.551,1.253,1.211,1.382,1.979c0.128,0.771-0.075,1.538-0.609,2.307l-1.73,2.491
				c-0.532,0.771-1.185,1.229-1.946,1.375c-0.767,0.149-1.545-0.053-2.338-0.604l-22.016-15.295
				c-0.744-0.519-1.19-1.169-1.345-1.955c-0.151-0.785,0.038-1.563,0.572-2.332l1.729-2.491c0.534-0.77,1.195-1.218,1.985-1.352
				c0.79-0.131,1.557,0.063,2.301,0.578L559.991,338.984z M557.865,341.807l-21.791-15.141l-1.188,1.71l21.792,15.142
				L557.865,341.807z"/>
		</g>
	</g>
	<path fill="#757575" d="M240.464,71.315c-0.261-0.502-0.425-0.351-0.366,0.339c0.061,0.69,0.271,1.103,0.473,0.914
		C240.772,72.381,240.722,71.818,240.464,71.315z M229.677,61.551c0.161,0.153,0.476,0.349,0.701,0.438
		c0.225,0.084,0.093-0.04-0.291-0.281C229.703,61.468,229.519,61.396,229.677,61.551z M172.452,193.104
		c0.719-0.326,1.172-0.78,1.005-1.012c-0.167-0.234-0.805-0.398-1.414-0.364C171.432,191.76,171.733,193.431,172.452,193.104z
		 M131.875,337.521c2.057,2.813,3.926,0.184,4.505-1.682C134.976,337.18,130.87,331.57,131.875,337.521z M225.971,236.725
		c-0.32,0.34-0.425,0.861-0.509,1.407C225.614,237.725,225.818,237.246,225.971,236.725z M217.427,237.836l-0.236-0.316
		 M258.908,300.804c-0.188-0.263-0.779-0.417-1.313-0.345c-0.533,0.076-0.379,0.292,0.342,0.479
		C258.664,301.125,259.099,301.063,258.908,300.804z M621.87,255.355c0.428-3.088-3.097-2.771-4.969-2.064
		C619.069,253.449,618.198,259.576,621.87,255.355z M376.132,35.132c0.172-0.226,0.027-0.273-0.317-0.106
		c-0.346,0.169-0.485,0.353-0.311,0.41C375.678,35.493,375.962,35.355,376.132,35.132z M377.403,27.97
		c-0.021,0.107-0.009,0.298,0.027,0.425c0.039,0.127,0.059,0.039,0.042-0.196C377.459,27.965,377.427,27.862,377.403,27.97z
		 M352.593,133.086c-0.312,0.5-1.227,1.293-0.644,1.662C352.246,134.266,353.466,133.652,352.593,133.086z M349.826,153.653
		c0.271,0.43,0.604,0.265,0.74-0.365c0.136-0.63,0.136-1.09,0-1.02C350.432,152.335,349.555,153.222,349.826,153.653z
		 M378.271,119.03c0.274-0.298,0.123-0.438-0.339-0.305c-0.462,0.132-0.688,0.374-0.501,0.544
		C377.618,119.437,377.997,119.327,378.271,119.03z M374.751,115.238c0.085-0.375-0.042-0.179-0.285,0.437
		c-0.242,0.616-0.313,0.924-0.155,0.682C374.467,116.117,374.669,115.614,374.751,115.238z M470.57,36.521
		c1.472,2.339,2.117-0.717,2.982-1.134L470.57,36.521z M252.981,27.608c0.063,0.158,0.07,0.328-0.036,0.511
		C253.084,27.936,253.066,27.777,252.981,27.608z M252.981,27.608c-0.142-0.452-0.687-0.828-0.58-1.203
		C252.035,26.789,252.757,27.178,252.981,27.608z M252.651,28.618c-0.037,0.114,0.045,0.24,0.117,0.364L252.651,28.618z
		 M252.768,28.983l0.093,0.271C252.86,29.152,252.829,29.072,252.768,28.983z M252.248,29.26c-0.105-0.033-0.163,0.063-0.126,0.217
		c0.039,0.152,0.476,0.329,0.518,0.226C252.679,29.6,252.351,29.293,252.248,29.26z M212.11,103.431
		c-0.16,0.205-0.291,0.431-0.313,0.771C211.926,103.978,212.034,103.728,212.11,103.431z M232.868,71.131
		c-0.277,0.179-0.562,0.545-0.626,0.814c-0.067,0.266,0.205,1.614,0.535,2.061c0.329,0.445,1.56,0.865,1.759,0.523
		c0.201-0.342,0.348-1.809,0.194-2.205C234.579,71.928,233.149,70.953,232.868,71.131z M276.221,43.412
		c-0.13-0.045-0.264-0.113-0.438-0.171C275.905,43.346,276.054,43.366,276.221,43.412z M368.406,44.479
		c0.224-0.146,0.404-0.33,0.521-0.646C368.741,44.027,368.561,44.241,368.406,44.479z M590.081,291.879
		c-0.083,0.25-0.146,0.546-0.163,0.818C590.036,292.494,590.11,292.223,590.081,291.879z M523.4,372.57
		c0.025,0.192,0.09,0.301,0.142,0.236c0.053-0.063,0.03-0.221-0.048-0.352C523.418,372.326,523.375,372.377,523.4,372.57z
		 M520.482,369.955c0.044,0.033,0.128,0.078,0.192,0.104c0.062,0.025,0.024,0-0.079-0.056
		C520.493,369.943,520.441,369.925,520.482,369.955z M489.017,344.117c-0.651,0.443-1.372,1.213-1.604,1.715
		c-0.228,0.501,0.485,2.404,1.198,3.123s3.376,0.716,3.789-0.389C492.814,347.463,489.672,343.673,489.017,344.117z
		 M244.379,166.128c0.153,0.318,0.307,0.613,0.5,0.887C244.818,166.719,244.676,166.446,244.379,166.128z M248.941,234.626
		c-0.082-0.032-0.237-0.069-0.35-0.08c-0.114-0.013-0.045,0.011,0.146,0.054C248.933,234.646,249.023,234.656,248.941,234.626z
		 M410.013,265.054c-0.116,0.261,0,0.21,0.261-0.107c0.26-0.319,0.732-0.71,0.285-0.845
		C410.109,263.969,410.13,264.789,410.013,265.054z M412.317,264.46c0.521,0.134,1.055,0.296,1.67,0.442
		C413.501,264.609,412.926,264.527,412.317,264.46z M406.898,262.766c0.025,0.526,0.628,1.078,0.888,1.347
		C408.826,263.701,407.72,263.1,406.898,262.766z M394.844,269.537c0.076,0.111,0.238,0.1,0.365-0.028
		c0.122-0.127-0.349-0.452-0.427-0.376C394.705,269.212,394.764,269.424,394.844,269.537z M394.465,269.279
		c-0.068-0.027-0.176-0.053-0.259-0.053C394.313,269.24,394.396,269.262,394.465,269.279z M394.206,269.227
		c-0.131-0.041-0.264-0.109-0.439-0.168C393.893,269.16,394.039,269.186,394.206,269.227z M395.635,269.789
		c0-0.141-0.143-0.295-0.212-0.389C395.13,269.505,395.424,269.682,395.635,269.789z M396.799,269.432
		c-0.052-0.021-0.078-0.011-0.109-0.011C396.721,269.443,396.759,269.432,396.799,269.432z M396.244,269.916
		c0.221,0.09,0.268,0.008,0.104-0.184c-0.158-0.188,0.246-0.453,0.133-0.621C396.365,268.938,396.028,269.824,396.244,269.916z
		 M409.671,261.201c-0.063,0.05-0.063,0.205-0.002,0.34c0.06,0.136,0.106,0.1,0.108-0.09
		C409.781,261.266,409.732,261.152,409.671,261.201z M412.328,264.379c-0.036-0.042-0.115-0.1-0.175-0.122
		c-0.06-0.024-0.024,0.013,0.073,0.08C412.32,264.404,412.368,264.426,412.328,264.379z M429.73,273.891
		c0.894-0.732,1.634-1.931,1.646-2.66c0.011-0.727-0.972-2.49-1.311-2.784c-0.34-0.29-1.913-0.146-2.574,0.102
		c-0.658,0.25-1.821,2.067-1.984,2.737C425.348,271.953,428.844,274.621,429.73,273.891z M420.957,279.912
		c-0.279,0.175-0.563,0.541-0.628,0.813c-0.063,0.271,0.214,1.612,0.544,2.059c0.33,0.445,1.555,0.869,1.759,0.529
		s0.341-1.807,0.188-2.207C422.665,280.707,421.243,279.738,420.957,279.912z M523.789,294.512c0.93,0.396,1.917-0.23,2.189-1.402
		c0.274-1.17-1.896-3.943-2.57-3.98c-0.671-0.039-2.449,1.213-2.615,1.744C520.622,291.408,522.86,294.117,523.789,294.512z
		 M403.764,35.293c0.125-0.085,0.23-0.182,0.299-0.358C403.948,35.046,403.847,35.157,403.764,35.293z M409.006,52.281
		c0.333-0.095,0.712-0.367,0.85-0.604c0.138-0.237,0.207-1.536,0-2.026c-0.207-0.489-1.319-1.184-1.621-0.918
		s-0.823,1.586-0.772,1.989C407.507,51.128,408.673,52.373,409.006,52.281z M378.229,51.303c0.065,0.006,0.113-0.085,0.104-0.204
		c-0.006-0.12-0.061-0.126-0.115-0.012C378.158,51.198,378.164,51.295,378.229,51.303z M377.045,50.991
		c0.069,0.184,0.113,0.267,0.098,0.182c-0.021-0.084-0.08-0.235-0.133-0.337C376.955,50.737,376.971,50.806,377.045,50.991z
		 M369.342,36.463c0.123,0.402,0.775,0.845,1.458,0.983c0.679,0.137,1.495-1.201,1.5-1.616c0.005-0.417-0.563-1.421-0.754-1.588
		c-0.194-0.168-1.092-0.084-1.468,0.059C369.701,34.443,369.22,36.059,369.342,36.463z M436.896,169.763
		c-0.037,0.188-0.018,0.524,0.051,0.743c0.065,0.222,0.098,0.068,0.072-0.342C436.993,169.756,436.938,169.578,436.896,169.763z
		 M586.567,165.219c-0.021-0.25-0.15-0.387-0.318-0.455C586.403,164.858,586.507,164.992,586.567,165.219z M586.248,164.764
		c-0.402-0.295-1.036-0.295-1.232-0.682C585.057,164.649,585.799,164.514,586.248,164.764z M587.069,166.084l0.249,0.181
		C587.239,166.172,587.146,166.128,587.069,166.084z M587.069,166.084l-0.348-0.251C586.782,165.97,586.911,166.016,587.069,166.084
		z M587.236,166.97c0.175,0.01,0.277-0.07,0.229-0.182c-0.047-0.114-0.265-0.27-0.483-0.353
		C586.763,166.353,587.063,166.957,587.236,166.97z M612.959,163.245c-0.023-0.087-0.041-0.058-0.041,0.069
		c0,0.124-0.041,0.285,0.07,0.249C613.098,163.526,612.98,163.332,612.959,163.245z M612.789,163.631
		c-0.037,0.044-0.072,0.067-0.118,0.091C612.703,163.675,612.752,163.675,612.789,163.631z M612.67,163.722
		c-0.134,0.046-0.287,0.089-0.463,0.157C612.375,163.879,612.529,163.785,612.67,163.722z M613.934,163.334
		c-0.093-0.114-0.282-0.179-0.399-0.205C613.418,163.403,613.721,163.382,613.934,163.334z M614.439,163.063
		c0.205-0.063,0.179-0.164-0.063-0.228c-0.236-0.064-0.148-0.544-0.354-0.625C613.825,162.129,614.234,163.125,614.439,163.063z
		 M614.456,162.289c-0.034,0.023-0.053,0.046-0.062,0.069C614.404,162.336,614.448,162.336,614.456,162.289z M614.357,165.322
		c0,0.032,0.205,0.103,0.462,0.16c0.257,0.056,0.464,0.082,0.464,0.056c0-0.026-0.208-0.096-0.462-0.158
		C614.571,165.314,614.36,165.29,614.357,165.322z M615.673,165.879c-0.011,0.182,0.062,0.406-0.163,0.543
		C615.936,166.334,616.052,166.241,615.673,165.879z M620.463,173.938c-1.148-0.886-2.787-1.449-3.642-1.249
		c-0.854,0.201-1.624,2.625-2.003,3.306c-0.381,0.681,1.869,3.47,2.427,3.926c0.563,0.456,2.766,0.313,3.479-0.26
		c0.72-0.572,3.216-0.926,3.304-1.195C624.116,178.199,621.61,174.826,620.463,173.938z M618.979,168.889
		c0.069,0.18,0.157,0.248,0.195,0.147c0.041-0.102-0.02-0.248-0.123-0.331C618.943,168.624,618.911,168.706,618.979,168.889z
		 M621.211,148.076c-0.061-0.015-0.152-0.015-0.207,0c-0.055,0.013-0.006,0.022,0.105,0.022
		C621.225,148.098,621.271,148.089,621.211,148.076z M617.778,191.31c-0.032,0.048,0.032,0.15,0.142,0.224
		c0.104,0.075,0.134,0.033,0.057-0.089C617.896,191.322,617.811,191.26,617.778,191.31z M618.743,190.65
		c0.11,0.026,0.048-0.014-0.146-0.091c-0.195-0.074-0.289-0.095-0.207-0.045C618.473,190.562,618.632,190.623,618.743,190.65z
		 M621.296,169.238l-0.546-0.817C620.193,168.783,621.105,168.99,621.296,169.238z M628.831,149.279l-0.17-0.499
		C628.638,149.053,628.425,149.098,628.831,149.279z M185.263,171.827c-0.783-0.187-1.863-0.052-2.399,0.295
		c-0.537,0.348-0.023,2.645,0.91,3.351c0.934,0.704,3.291-0.294,3.688-0.637C187.863,174.491,186.046,172.013,185.263,171.827z
		 M174.379,168.24c0.229-0.313-0.534-0.891-1.698-1.282c-1.166-0.395-4.269-1.929-4.57-1.887c-0.302,0.044,0.618,1.227,1.688,1.738
		C170.861,167.319,174.149,168.552,174.379,168.24z M162.142,150.347c0.078-0.093,0.197-0.182,0.412-0.206
		C162.314,150.141,162.212,150.212,162.142,150.347z M161.596,151.345c0.563,0.091,0.354-0.637,0.546-0.998
		C161.893,150.663,161.974,151.254,161.596,151.345z M163.362,149.87l0.164-0.205C163.428,149.733,163.38,149.8,163.362,149.87z
		 M163.362,149.87l-0.22,0.251C163.274,150.094,163.31,149.98,163.362,149.87z M163.937,150.118c0.041,0.086,0.151,0.078,0.25-0.024
		c0.099-0.097-0.056-0.48-0.167-0.464C163.909,149.649,163.897,150.031,163.937,150.118z M210.344,144.18
		c0.336,0.118,0.817,0.148,1.072,0.069c0.254-0.081,1.113-0.897,1.23-1.34c0.119-0.445-0.42-1.518-0.829-1.5
		c-0.41,0.019-1.665,0.617-1.868,0.91C209.748,142.613,210.01,144.061,210.344,144.18z M200.09,133.869
		c0.425-0.306,0.738-1.265,0.696-2.134c-0.044-0.867-2.079-2.585-3.185-2.234c-1.108,0.351-1.75,3.197-1.312,3.691
		C196.73,133.686,199.665,134.176,200.09,133.869z M180.764,333.32c0.319,0.02,0.651,0.045,0.991,0.045
		C181.446,333.251,181.128,333.227,180.764,333.32z M187.359,313.834c-0.091,0.457-1.613-0.314-0.624,0.912
		C187.506,315.132,187.506,314.314,187.359,313.834z M266.102,335.145c-0.662-0.625-1.741-1.662-2.393-2.306
		c-0.656-0.644-3.753,0.302-4.282,0.623c-0.532,0.323-0.665,2.425-0.153,3.338c0.511,0.913,0.58,3.386,0.854,3.575
		c0.271,0.193,2.093,0.619,3.542,0.443C265.119,340.645,266.765,335.768,266.102,335.145z M247.469,366.051
		c-0.091,0.07-0.059,0.107,0.075,0.092c0.133-0.02,0.207-0.074,0.167-0.123C247.668,365.971,247.56,365.982,247.469,366.051z
		 M248.261,367.175c-0.039,0.101,0.01,0.058,0.107-0.099c0.098-0.158,0.128-0.239,0.068-0.184
		C248.381,366.949,248.302,367.076,248.261,367.175z M270.776,378.371c-0.297-0.684-0.616,0.091-0.885,0.156L270.776,378.371z
		 M289.434,393.9l0.555,0.069C289.695,393.809,289.682,393.607,289.434,393.9z M176.751,346.729
		c-1.673-0.133-3.425,0.287-3.894,0.932c-0.467,0.644-1.341,2.813-1.042,3.76c0,0,0,0,0.535,0.682
		c1.571,2.021,1.571,2.021,1.571,2.021c2.464-0.5,4.94-1.309,5.506-1.795C179.991,351.84,178.425,346.859,176.751,346.729z"/>
</g>
</svg>
